<?xml version="1.0" standalone="no"?>
<!DOCTYPE svg PUBLIC "-//W3C//DTD SVG 20010904//EN"
 "http://www.w3.org/TR/2001/REC-SVG-20010904/DTD/svg10.dtd">
<svg version="1.0" xmlns="http://www.w3.org/2000/svg"
 width="500.000000pt" height="500.000000pt" viewBox="0 0 500.000000 500.000000"
 preserveAspectRatio="xMidYMid meet">

<g transform="translate(0.000000,500.000000) scale(0.100000,-0.100000)"
fill="#000000" stroke="none">
<path d="M2156 3512 c-2 -4 13 -6 35 -4 21 2 39 6 39 8 0 7 -69 4 -74 -4z"/>
<path d="M2248 3503 c7 -3 16 -2 19 1 4 3 -2 6 -13 5 -11 0 -14 -3 -6 -6z"/>
<path d="M2079 3471 c-81 -54 -159 -134 -159 -164 0 -14 -8 -42 -17 -62 -16
-34 -16 -36 4 -63 11 -15 24 -47 28 -71 9 -56 53 -105 126 -142 32 -16 63 -38
69 -50 6 -11 16 -64 21 -117 13 -127 22 -160 58 -202 28 -32 30 -33 31 -13 0
13 -5 22 -11 20 -26 -5 -51 62 -61 170 -6 60 -17 120 -24 135 -12 24 -12 27 4
31 20 5 14 7 -56 26 -65 18 -137 93 -146 151 -4 24 -14 52 -23 62 -14 15 -14
25 -3 80 12 58 19 69 80 129 37 36 83 73 103 83 21 9 37 19 37 21 0 11 -19 3
-61 -24z"/>
<path d="M2347 3428 c4 -33 2 -39 -18 -47 l-24 -10 23 0 c29 -1 38 21 24 62
l-11 32 6 -37z"/>
<path d="M2486 3450 c-39 -12 -73 -46 -86 -85 -12 -37 4 -200 22 -222 11 -14
3 -63 -11 -63 -5 0 -29 16 -53 36 -45 38 -95 64 -124 64 -10 0 -32 16 -50 35
-17 19 -38 35 -45 35 -7 0 -4 -7 9 -16 30 -21 43 -48 58 -119 l13 -60 -5 59
c-4 51 -2 57 12 52 8 -3 24 -6 33 -6 10 0 49 -23 86 -50 38 -28 73 -49 78 -47
6 2 12 14 14 27 5 32 8 34 30 19 15 -9 27 -9 49 0 l29 11 -31 -6 c-58 -10
-103 68 -104 178 0 112 22 138 123 139 78 1 121 -18 136 -62 16 -46 13 -119
-5 -154 -20 -37 -31 -165 -16 -191 6 -11 12 -14 12 -7 0 15 108 -49 137 -82
12 -13 23 -19 25 -13 5 15 80 -33 101 -66 10 -14 20 -40 24 -56 3 -17 8 -28
12 -24 3 3 11 -16 18 -43 11 -46 11 -47 12 -13 2 34 2 34 17 15 8 -11 32 -54
53 -96 28 -56 36 -81 30 -97 -5 -13 -4 -22 1 -22 17 0 24 52 10 74 -8 12 -26
46 -41 76 -15 31 -38 69 -52 85 -13 17 -33 48 -45 70 -25 50 -53 76 -118 108
-62 31 -165 99 -183 121 -19 22 -9 112 18 161 17 32 19 49 14 99 -3 34 -10 69
-15 78 -21 41 -135 75 -192 58z"/>
<path d="M2226 3399 c3 -5 13 -9 23 -9 9 0 23 -6 31 -12 12 -11 12 -10 2 3
-13 17 -66 33 -56 18z"/>
<path d="M2121 3317 c-1 -33 -15 -63 -45 -96 l-21 -24 21 11 c28 15 56 76 51
110 l-4 27 -2 -28z"/>
<path d="M2100 3153 c0 -6 16 -30 35 -53 19 -23 35 -36 35 -28 -1 16 -70 96
-70 81z"/>
<path d="M2016 3039 c6 -11 64 -42 69 -37 2 2 -14 13 -36 25 -21 12 -37 17
-33 12z"/>
<path d="M2421 3017 c2 -1 13 -9 24 -17 19 -14 19 -14 6 3 -7 9 -18 17 -24 17
-6 0 -8 -1 -6 -3z"/>
<path d="M2555 2980 c11 -5 31 -8 45 -8 l25 0 -25 8 c-14 4 -34 8 -45 8 l-20
1 20 -9z"/>
<path d="M2230 2897 c0 -4 11 -25 24 -46 40 -62 156 -103 186 -65 11 12 11 15
2 10 -45 -27 -146 11 -187 71 -14 21 -25 34 -25 30z"/>
<path d="M2495 2789 c4 -5 25 -19 48 -31 49 -25 148 -31 169 -10 11 11 8 11
-17 2 -36 -14 -80 -6 -152 25 -29 13 -51 20 -48 14z"/>
<path d="M2800 2734 c0 -5 13 -31 30 -57 26 -41 27 -47 12 -47 -21 0 -66 44
-82 80 -9 23 -10 21 -5 -11 7 -44 -14 -73 -93 -131 -31 -23 -51 -43 -45 -45 6
-2 23 7 38 19 82 68 105 92 105 104 0 20 8 18 42 -11 16 -14 36 -25 44 -25 19
0 18 -19 -6 -57 -11 -18 -16 -33 -12 -33 4 0 20 25 36 55 33 63 54 79 101 73
19 -2 31 0 29 4 -9 14 -81 9 -94 -7 -19 -23 -26 -19 -64 42 -20 32 -36 53 -36
47z"/>
<path d="M2250 2713 c0 -6 12 -25 26 -42 29 -35 85 -54 117 -41 19 7 16 9 -16
9 -49 1 -93 24 -111 59 -9 15 -15 22 -16 15z"/>
<path d="M2625 2645 c-28 -17 -56 -25 -90 -26 -50 -1 -50 -1 -16 -11 40 -11
107 10 136 42 23 26 19 25 -30 -5z"/>
<path d="M2412 2550 c0 -14 2 -19 5 -12 2 6 2 18 0 25 -3 6 -5 1 -5 -13z"/>
<path d="M1645 2538 c-3 -7 -4 -159 -3 -338 l3 -325 75 0 75 0 5 145 5 145 38
3 c36 3 37 4 37 43 0 39 0 39 -40 39 l-39 0 -3 148 -3 147 -73 3 c-52 2 -74
-1 -77 -10z"/>
<path d="M3206 2535 c-3 -9 -6 -77 -6 -151 l0 -134 -40 0 c-40 0 -40 0 -40
-39 0 -39 1 -40 38 -43 l37 -3 5 -145 5 -145 75 0 75 0 0 335 0 335 -71 3
c-59 2 -73 0 -78 -13z"/>
<path d="M2310 2515 c0 -6 63 -35 75 -35 3 0 5 5 5 10 0 6 -9 10 -21 10 -11 0
-29 5 -40 10 -10 6 -19 8 -19 5z"/>
<path d="M2557 2503 c-4 -3 -35 -10 -69 -14 l-63 -8 63 3 c34 1 68 8 74 14 7
7 10 12 7 12 -3 0 -9 -3 -12 -7z"/>
<path d="M1502 2468 c-9 -9 -12 -79 -12 -254 0 -133 3 -249 6 -258 5 -12 20
-16 60 -16 l54 0 0 270 0 270 -48 0 c-26 0 -53 -5 -60 -12z"/>
<path d="M3390 2210 l0 -270 54 0 c40 0 55 4 60 16 3 9 6 123 6 254 0 131 -3
245 -6 254 -5 12 -20 16 -60 16 l-54 0 0 -270z"/>
<path d="M1390 2210 l0 -180 25 -6 c49 -12 50 -10 51 184 l1 182 -38 0 -39 0
0 -180z"/>
<path d="M3537 2238 c1 -84 2 -168 3 -185 0 -26 4 -33 19 -33 51 0 51 0 51
191 l0 179 -37 0 -38 0 2 -152z"/>
<path d="M1973 2356 c-27 -24 -28 -27 -31 -146 -5 -171 -6 -170 144 -170 109
0 116 1 139 25 22 21 25 33 25 100 l0 75 -75 0 c-73 0 -75 -1 -75 -24 0 -21 5
-25 37 -28 31 -2 38 -7 37 -23 -3 -57 1 -55 -79 -55 l-75 0 0 100 0 100 95 0
95 0 0 35 0 35 -104 0 c-96 0 -107 -2 -133 -24z"/>
<path d="M2310 2374 c0 -3 29 -53 65 -111 61 -98 65 -108 65 -164 l0 -59 35 0
35 0 0 58 c0 54 5 66 65 164 36 59 65 110 65 113 0 3 -19 5 -42 3 -41 -3 -44
-5 -82 -72 -29 -50 -42 -65 -48 -55 -5 8 -23 39 -41 69 -30 52 -35 55 -75 58
-23 2 -42 0 -42 -4z"/>
<path d="M2707 2374 c-4 -4 -7 -81 -7 -171 l0 -163 40 0 39 0 3 78 3 77 33
-57 c30 -52 36 -57 63 -54 35 4 29 -2 65 65 l29 55 3 -82 3 -82 40 0 39 0 -2
168 -3 167 -35 3 -35 3 -50 -101 c-27 -55 -52 -100 -55 -100 -3 0 -27 44 -55
98 -45 88 -53 97 -80 100 -17 2 -34 0 -38 -4z"/>
<path d="M2487 1890 c-6 -27 -10 -30 -44 -30 l-38 0 29 -23 c27 -22 28 -26 18
-56 l-11 -32 29 18 c29 16 31 16 60 0 l29 -18 -11 32 c-10 30 -9 34 18 56 l29
23 -38 0 c-34 0 -38 3 -43 30 -4 17 -10 30 -14 30 -4 0 -10 -13 -13 -30z"/>
<path d="M1930 1818 c3 -4 132 -80 288 -171 l282 -166 275 161 c151 89 274
163 272 164 -2 2 -122 -39 -268 -91 -145 -52 -271 -95 -279 -95 -12 0 -447
153 -555 195 -11 5 -18 6 -15 3z"/>
</g>
</svg>
